<svg xmlns="http://www.w3.org/2000/svg" width="32" height="32" viewBox="0 0 32 32" fill="none" stroke="#5BC0DE" stroke-width="2" stroke-linecap="round" stroke-linejoin="round">
    <path d="M30.05 8.56a3.71 3.71 0 0 0-2.58-2.67C24.51 5.33 16 5.33 16 5.33s-8.51 0-11.47.61a3.71 3.71 0 0 0-2.58 2.67 38.67 38.67 0 0 0-.61 7.1 38.67 38.67 0 0 0 .61 7.11 3.71 3.71 0 0 0 2.58 2.67c2.96.61 11.47.61 11.47.61s8.51 0 11.47-.61a3.71 3.71 0 0 0 2.58-2.67 38.67 38.67 0 0 0 .61-7 38.67 38.67 0 0 0-.61-7.11z"/>
    <polygon points="13 20.03 20.67 15.67 13 11.31 13 20.03"/>
</svg>
